<svg xmlns="http://www.w3.org/2000/svg" xmlns:xlink="http://www.w3.org/1999/xlink" width="1920" height="1101" viewBox="0 0 1920 1101"><defs><clipPath id="b"><rect width="1920" height="1101"/></clipPath></defs><g id="a" clip-path="url(#b)"><rect width="1920" height="1101" fill="#fff"/><g transform="translate(-474 -51)"><path d="M1086.93,722.093c-.3,54.784-32.978,73.73-73.15,73.508q-1.4-.008-2.786-.047-2.792-.076-5.526-.285c-36.242-2.768-64.3-23.032-64.02-73.982.292-52.726,68.048-118.893,73.129-123.785,0,0,0,0,.009,0,.193-.186.292-.28.292-.28S1087.23,667.313,1086.93,722.093Z" transform="translate(64.75 5.477)" fill="rgba(252,102,129,0.27)"/><path d="M1011.18,802.5l26.81-40-26.9,44.413-.095,4.611q-2.792-.082-5.526-.308l3.17-59.2-.02-.458.049-.087.3-5.594-26.513-44.844,26.611,40.652.061,1.187,2.395-44.729L988.87,651.825l22.975,38.45,2.73-92.751.01-.309,0,.3-.75,73.153,22.936-28.865-23.07,35.165-.808,40.059,21.48-38.319-21.594,44.209-.449,22.275,31.16-53.332-31.318,61.1Z" transform="translate(67.75 4.477)" fill="rgba(63,61,86,0.3)"/></g><g transform="translate(308 -28)"><path d="M1086.93,722.093c-.3,54.784-32.978,73.73-73.15,73.508q-1.4-.008-2.786-.047-2.792-.076-5.526-.285c-36.242-2.768-64.3-23.032-64.02-73.982.292-52.726,68.048-118.893,73.129-123.785,0,0,0,0,.009,0,.193-.186.292-.28.292-.28S1087.23,667.313,1086.93,722.093Z" transform="translate(64.75 5.477)" fill="rgba(252,102,129,0.27)"/><path d="M1011.18,802.5l26.81-40-26.9,44.413-.095,4.611q-2.792-.082-5.526-.308l3.17-59.2-.02-.458.049-.087.3-5.594-26.513-44.844,26.611,40.652.061,1.187,2.395-44.729L988.87,651.825l22.975,38.45,2.73-92.751.01-.309,0,.3-.75,73.153,22.936-28.865-23.07,35.165-.808,40.059,21.48-38.319-21.594,44.209-.449,22.275,31.16-53.332-31.318,61.1Z" transform="translate(67.75 4.477)" fill="rgba(63,61,86,0.3)"/></g><g transform="translate(-218 525)"><path d="M494.33,642.409c-11.52-16.246-8.8-38.038,6.391-51.287a43.481,43.481,0,0,1,54.405-1.723c16.093,12.258,20.334,33.831,9.981,50.769s-32.193,24.162-51.4,17a13.706,13.706,0,0,1-26.141-.458A12.591,12.591,0,0,1,494.33,642.409Z" transform="translate(443.516 -457.027)" fill="rgba(15,71,175,0.13)"/><g transform="translate(953.021 150.078)"><path d="M566.173,529.441a5.232,5.232,0,0,0,3.716-1.487l14.834-14.663a3.015,3.015,0,0,0-1.872-.661h-33.33a2.994,2.994,0,0,0-1.872.661l14.838,14.663A5.21,5.21,0,0,0,566.173,529.441Z" transform="translate(-546.48 -512.63)" fill="#fff"/><path d="M583.27,522.3,573.085,532.36a.175.175,0,0,0,0,.258L580.231,540a1.171,1.171,0,0,1,.264,1.3,1.232,1.232,0,0,1-1.132.739,1.257,1.257,0,0,1-.871-.35l-7.109-7.353a.2.2,0,0,0-.272,0l-1.732,1.7a7.727,7.727,0,0,1-5.445,2.224,7.894,7.894,0,0,1-5.54-2.287l-1.664-1.652a.2.2,0,0,0-.272,0l-7.092,7.336a1.254,1.254,0,0,1-1.739,0,1.166,1.166,0,0,1,0-1.689l7.119-7.363a.194.194,0,0,0,0-.258L544.56,522.281a.191.191,0,0,0-.2-.04.182.182,0,0,0-.115.169v20.135a2.993,2.993,0,0,0,3.025,2.938h33.306a2.992,2.992,0,0,0,3.025-2.938V522.427a.182.182,0,0,0-.117-.176A.191.191,0,0,0,583.27,522.3Z" transform="translate(-544.24 -519.056)" fill="#fff"/></g></g><ellipse cx="461.985" cy="16.36" rx="461.985" ry="16.36" transform="translate(497.937 772.799)" fill="rgba(108,99,255,0.45)" opacity="0.1"/><g transform="translate(264 514)"><path d="M494.33,642.409c-11.52-16.246-8.8-38.038,6.391-51.287a43.481,43.481,0,0,1,54.405-1.723c16.093,12.258,20.334,33.831,9.981,50.769s-32.193,24.162-51.4,17a13.706,13.706,0,0,1-26.141-.458A12.591,12.591,0,0,1,494.33,642.409Z" transform="translate(443.516 -457.027)" fill="rgba(7,137,48,0.13)"/><path d="M819.944,385.019a28.875,28.875,0,0,0-6.108-4.461c-1.829-.96-2.5-.943-3.795.079-1.077.835-1.775,1.64-3.012,1.344s-3.688-2.316-6.058-4.9-4.211-5.245-4.474-6.618.462-2.12,1.233-3.3c.932-1.415.958-2.149.073-4.148a32.362,32.362,0,0,0-4.085-6.677c-1.34-1.461-1.63-1.139-2.363-.835a13.313,13.313,0,0,0-2.165,1.252,6.93,6.93,0,0,0-2.6,3c-.523,1.219-1.115,3.48,1.928,9.4a52.343,52.343,0,0,0,8.437,12.3h0a48.666,48.666,0,0,0,11.288,9.239c5.413,3.338,7.486,2.675,8.6,2.107a6.678,6.678,0,0,0,2.741-2.838,15.268,15.268,0,0,0,1.145-2.366C820.986,386.8,821.284,386.476,819.944,385.019Z" transform="translate(170.433 -210.187)" fill="#fff"/></g><path d="M384.26,661.648a13.92,13.92,0,0,0-6.971,1.871,14.982,14.982,0,0,0-25.029,11.129H398.21A13.99,13.99,0,0,0,384.26,661.648Z" transform="translate(203.931 90.404)" fill="rgba(7,137,48,0.15)"/><path d="M384.26,661.648a13.92,13.92,0,0,0-6.971,1.871,14.982,14.982,0,0,0-25.029,11.129H398.21A13.99,13.99,0,0,0,384.26,661.648Z" transform="translate(977.931 113.404)" fill="rgba(7,137,48,0.15)"/><path d="M384.26,661.648a13.92,13.92,0,0,0-6.971,1.871,14.982,14.982,0,0,0-25.029,11.129H398.21A13.99,13.99,0,0,0,384.26,661.648Z" transform="translate(249.931 90.404)" fill="rgba(7,137,48,0.15)"/><path d="M384.26,661.648a13.92,13.92,0,0,0-6.971,1.871,14.982,14.982,0,0,0-25.029,11.129H398.21A13.99,13.99,0,0,0,384.26,661.648Z" transform="translate(1023.931 113.404)" fill="rgba(7,137,48,0.15)"/><path d="M690.674,326.062l9.206-7.363c-7.151-.789-10.09,3.111-11.292,6.2-5.587-2.32-11.669.72-11.669.72l18.419,6.687a13.938,13.938,0,0,0-4.663-6.243Z" transform="translate(385.931 121.404)" fill="rgba(63,61,86,0.34)"/><path d="M690.674,326.062l9.206-7.363c-7.151-.789-10.09,3.111-11.292,6.2-5.587-2.32-11.669.72-11.669.72l18.419,6.687a13.938,13.938,0,0,0-4.663-6.243Z" transform="translate(440.931 121.404)" fill="rgba(63,61,86,0.34)"/><path d="M690.674,326.062l9.206-7.363c-7.151-.789-10.09,3.111-11.292,6.2-5.587-2.32-11.669.72-11.669.72l18.419,6.687a13.938,13.938,0,0,0-4.663-6.243Z" transform="translate(396.931 93.404)" fill="rgba(63,61,86,0.34)"/><path d="M690.674,326.062l9.206-7.363c-7.151-.789-10.09,3.111-11.292,6.2-5.587-2.32-11.669.72-11.669.72l18.419,6.687a13.938,13.938,0,0,0-4.663-6.243Z" transform="translate(536.931 114.404)" fill="rgba(63,61,86,0.34)"/><g transform="translate(47 -209)"><path d="M224.272,225.932c7.443-10.309,5.688-24.138-4.13-32.546a28.5,28.5,0,0,0-35.153-1.093c-10.4,7.779-13.138,21.469-6.449,32.217s20.8,15.331,33.212,10.787a8.906,8.906,0,0,0,16.891-.289,7.945,7.945,0,0,0-4.371-9.076Z" transform="translate(491.101 595.518)" fill="rgba(218,18,26,0.09)"/><path d="M335.685,430.16,325,451.959l1,.882,9.691-3.779,9.691,3.779,1-.882Z" transform="translate(357.486 364.98)" fill="#fff"/></g><path d="M308.63,328.3l6.88,4.36-4.18-7.58a6.79,6.79,0,0,1,4.16-1.49h.11a8.519,8.519,0,0,0,1.43-.1l2.33,1.47-1-1.81a8.291,8.291,0,0,0,4.07-3.09l4.17,2.64-2.6-4.79a12.2,12.2,0,0,1,9.34-4.72c4.33,0,8.2,2.58,10.69,6.6a8,8,0,0,0,7.06,3.81h.24c4.78,0,8.66,5.43,8.66,12.12s-3.88,12.12-8.66,12.12a6.49,6.49,0,0,1-3-.75,12.48,12.48,0,0,0-10.49-.21,10.86,10.86,0,0,1-4.48,1,11,11,0,0,1-4.44-.94,12.52,12.52,0,0,0-10.39.2,6.48,6.48,0,0,1-3,.74c-4.79,0-8.67-5.42-8.67-12.12a15.441,15.441,0,0,1,1.77-7.46Z" transform="translate(530.777 133.729)" fill="#6c63ff" opacity="0.1"/><path d="M308.63,328.3l6.88,4.36-4.18-7.58a6.79,6.79,0,0,1,4.16-1.49h.11a8.519,8.519,0,0,0,1.43-.1l2.33,1.47-1-1.81a8.291,8.291,0,0,0,4.07-3.09l4.17,2.64-2.6-4.79a12.2,12.2,0,0,1,9.34-4.72c4.33,0,8.2,2.58,10.69,6.6a8,8,0,0,0,7.06,3.81h.24c4.78,0,8.66,5.43,8.66,12.12s-3.88,12.12-8.66,12.12a6.49,6.49,0,0,1-3-.75,12.48,12.48,0,0,0-10.49-.21,10.86,10.86,0,0,1-4.48,1,11,11,0,0,1-4.44-.94,12.52,12.52,0,0,0-10.39.2,6.48,6.48,0,0,1-3,.74c-4.79,0-8.67-5.42-8.67-12.12a15.441,15.441,0,0,1,1.77-7.46Z" transform="translate(485.777 146.729)" fill="#6c63ff" opacity="0.1"/><path d="M308.63,328.3l6.88,4.36-4.18-7.58a6.79,6.79,0,0,1,4.16-1.49h.11a8.519,8.519,0,0,0,1.43-.1l2.33,1.47-1-1.81a8.291,8.291,0,0,0,4.07-3.09l4.17,2.64-2.6-4.79a12.2,12.2,0,0,1,9.34-4.72c4.33,0,8.2,2.58,10.69,6.6a8,8,0,0,0,7.06,3.81h.24c4.78,0,8.66,5.43,8.66,12.12s-3.88,12.12-8.66,12.12a6.49,6.49,0,0,1-3-.75,12.48,12.48,0,0,0-10.49-.21,10.86,10.86,0,0,1-4.48,1,11,11,0,0,1-4.44-.94,12.52,12.52,0,0,0-10.39.2,6.48,6.48,0,0,1-3,.74c-4.79,0-8.67-5.42-8.67-12.12a15.441,15.441,0,0,1,1.77-7.46Z" transform="translate(459.777 161.729)" fill="#6c63ff" opacity="0.1"/></g></svg>