<svg xmlns="http://www.w3.org/2000/svg" xmlns:xlink="http://www.w3.org/1999/xlink" width="1920" height="1101" viewBox="0 0 1920 1101"><defs><linearGradient id="a" x1="0.5" y1="1" x2="0.5" gradientUnits="objectBoundingBox"><stop offset="0" stop-color="gray" stop-opacity="0.251"/><stop offset="0.54" stop-color="gray" stop-opacity="0.122"/><stop offset="1" stop-color="gray" stop-opacity="0.102"/></linearGradient><clipPath id="d"><rect width="1920" height="1101"/></clipPath></defs><g id="c" clip-path="url(#d)"><rect width="1920" height="1101" fill="#fff"/><g transform="translate(-692 471.954)"><g transform="translate(1159.72 128.04)" opacity="0.7"><path d="M509.6,199H335.6a5.65,5.65,0,0,0-5.6,5.692V325.508a5.65,5.65,0,0,0,5.6,5.692h59.842v20.855h-2.728a2.865,2.865,0,0,0-2.842,2.888v4.184h65.45v-4.184a2.865,2.865,0,0,0-2.842-2.888h-2.567v-.18h-.175V331.2H509.6a5.651,5.651,0,0,0,5.6-5.692V204.692A5.65,5.65,0,0,0,509.6,199Z" transform="translate(-330 -199)" fill="url(#a)"/></g><rect width="53.602" height="31.892" transform="translate(1225.692 254.569)" fill="#bdbdbd"/><g transform="translate(1225.52 253.182)" opacity="0.1"><path d="M522.727,570.507h51.6c.622-2.728,1.12-4.507,1.12-4.507H521.5S522.053,567.771,522.727,570.507Z" transform="translate(-521.5 -566)"/></g><path d="M225.252,3H396.985a5.557,5.557,0,0,1,5.532,5.581V115.316H219.72V8.581A5.557,5.557,0,0,1,225.252,3Z" transform="translate(941.374 124)" fill="rgba(83,84,97,0.58)"/><path d="M511.265,543.333H339.532A5.557,5.557,0,0,1,334,537.752V526H516.8v11.752A5.557,5.557,0,0,1,511.265,543.333Z" transform="translate(827.094 -286.684)" fill="#bdbdbd"/><ellipse cx="3.092" cy="3.12" rx="3.092" ry="3.12" transform="translate(1249.4 244.862)" fill="rgba(83,84,97,0.42)"/><path d="M394.527,436H453.51a2.82,2.82,0,0,1,2.807,2.832v4.1h-64.6v-4.1A2.82,2.82,0,0,1,394.527,436Z" transform="translate(827.443 -154.392)" fill="#bdbdbd"/><g transform="translate(1195.798 150.614)" opacity="0.5"><rect width="113.389" height="65.088" rx="4.5" transform="translate(0 0)" fill="url(#a)"/></g><rect width="110.482" height="63.771" rx="4.5" transform="translate(1197.252 151.092)" fill="#fff"/><g transform="translate(1228.028 160.248)" opacity="0.5"><rect width="12.177" height="11.058" rx="4.5" transform="translate(0)" fill="rgba(15,71,175,0.14)"/></g><rect width="32.879" height="1.227" rx="0.614" transform="translate(1243.858 160.248)" fill="#e0e0e0"/><rect width="27.33" height="1.227" rx="0.614" transform="translate(1243.858 163.936)" fill="#e0e0e0"/><g transform="translate(1228.028 177.449)" opacity="0.5"><rect width="12.177" height="11.058" rx="4.5" transform="translate(0 0)" fill="rgba(15,71,175,0.14)"/></g><rect width="32.879" height="1.227" rx="0.614" transform="translate(1243.858 177.449)" fill="#e0e0e0"/><rect width="32.879" height="1.227" rx="0.614" transform="translate(1243.858 181.134)" fill="#e0e0e0"/><g transform="translate(1228.028 194.65)" opacity="0.5"><rect width="12.177" height="11.058" rx="4.5" transform="translate(0)" fill="rgba(15,71,175,0.14)"/></g><rect width="32.879" height="1.227" rx="0.614" transform="translate(1243.858 194.65)" fill="#e0e0e0"/><rect width="33.099" height="1.227" rx="0.614" transform="translate(1243.858 198.335)" fill="#e0e0e0"/><g transform="translate(1225.864 280.741)" opacity="0.1"><rect width="53.602" height="1.04" transform="translate(0)"/></g></g><ellipse cx="113.823" cy="12.86" rx="113.823" ry="12.86" transform="translate(448.937 751.251)" fill="rgba(15,71,175,0.34)" opacity="0.1"/><path d="M529.086,267.73l-16.624,9.513,10.09-16.56a17.469,17.469,0,0,0-10.042-3.229h-.29a20.063,20.063,0,0,1-3.436-.24l-5.638,3.229,2.42-3.971a20,20,0,0,1-9.873-6.742l-10.09,5.76,6.388-10.429a30.719,30.719,0,0,0-22.6-10.32c-10.5,0-19.842,5.629-25.867,14.4a19.965,19.965,0,0,1-17.108,8.313h-.557c-11.591,0-20.979,11.826-20.979,26.444s9.389,26.444,20.979,26.444a17.107,17.107,0,0,0,7.259-1.658,33.252,33.252,0,0,1,25.359-.436,28.579,28.579,0,0,0,21.584.131,33.365,33.365,0,0,1,25.165.436,17.067,17.067,0,0,0,7.259,1.615c11.566,0,20.955-11.848,20.955-26.444a30.833,30.833,0,0,0-4.354-16.256Z" transform="translate(225.87 197.729)" fill="#0f47af" opacity="0.1"/><path d="M529.086,267.73l-16.624,9.513,10.09-16.56a17.469,17.469,0,0,0-10.042-3.229h-.29a20.063,20.063,0,0,1-3.436-.24l-5.638,3.229,2.42-3.971a20,20,0,0,1-9.873-6.742l-10.09,5.76,6.388-10.429a30.719,30.719,0,0,0-22.6-10.32c-10.5,0-19.842,5.629-25.867,14.4a19.965,19.965,0,0,1-17.108,8.313h-.557c-11.591,0-20.979,11.826-20.979,26.444s9.389,26.444,20.979,26.444a17.107,17.107,0,0,0,7.259-1.658,33.252,33.252,0,0,1,25.359-.436,28.579,28.579,0,0,0,21.584.131,33.365,33.365,0,0,1,25.165.436,17.067,17.067,0,0,0,7.259,1.615c11.566,0,20.955-11.848,20.955-26.444a30.833,30.833,0,0,0-4.354-16.256Z" transform="translate(314.87 159.729)" fill="#0f47af" opacity="0.1"/><g transform="translate(1404.98 650.21)"><rect width="12.113" height="27.248" transform="translate(11.356)" fill="rgba(7,137,48,0.2)"/><rect width="12.113" height="27.248" transform="translate(48.452 20.642)" fill="rgba(218,18,26,0.16)"/><path d="M821.72,352h69.65v65.642c0,10.716-7.965,19.4-17.791,19.4H839.511c-9.826,0-17.791-8.687-17.791-19.4Z" transform="translate(-821.72 -299.982)" fill="rgba(195,201,212,0.98)"/></g><ellipse cx="113.823" cy="12.86" rx="113.823" ry="12.86" transform="translate(1325.937 774.251)" fill="rgba(15,71,175,0.34)" opacity="0.1"/><path d="M690.674,326.062l9.206-7.363c-7.151-.789-10.09,3.111-11.292,6.2-5.587-2.32-11.669.72-11.669.72l18.419,6.687a13.938,13.938,0,0,0-4.663-6.243Z" transform="translate(202.931 137.404)" fill="rgba(63,61,86,0.34)"/><path d="M690.674,326.062l9.206-7.363c-7.151-.789-10.09,3.111-11.292,6.2-5.587-2.32-11.669.72-11.669.72l18.419,6.687a13.938,13.938,0,0,0-4.663-6.243Z" transform="translate(231.931 127.404)" fill="rgba(63,61,86,0.34)"/><path d="M0,0H12.113V26.4H0Z" transform="translate(1416.336 677.458)" fill="rgba(135,136,150,0.17)"/><ellipse cx="75.171" cy="73.195" rx="75.171" ry="73.195" transform="translate(1079.809 335.958)" fill="#c4d2eb" opacity="0.3"/><path d="M856.709,324.9c-1.142-4.2-2.383-8.447-3.684-12.615l2.128-.652c1.31,4.193,2.558,8.464,3.708,12.693Zm-696.889-.96-2.15-.579c1.166-4.242,2.43-8.524,3.758-12.729l2.127.658c-1.32,4.178-2.576,8.435-3.735,12.65Zm689.059-24.1c-1.459-4.119-3.009-8.256-4.611-12.294l2.074-.806c1.611,4.063,3.173,8.226,4.639,12.371ZM167.76,298.79l-2.1-.736c1.484-4.15,3.065-8.326,4.7-12.411l2.071.812c-1.625,4.06-3.2,8.211-4.67,12.334ZM839.2,275.426c-1.754-3.987-3.61-8-5.516-11.93l2.008-.955c1.918,3.954,3.786,7.993,5.551,12ZM177.559,274.3l-2.04-.889c1.789-4.025,3.677-8.071,5.613-12.026l2.005.962c-1.923,3.93-3.8,7.952-5.577,11.952Zm650.163-22.533c-2.054-3.861-4.2-7.73-6.393-11.5l1.932-1.1c2.2,3.794,4.366,7.687,6.432,11.572ZM189.16,250.614l-1.968-1.035c2.085-3.885,4.27-7.781,6.493-11.579l1.928,1.106C193.4,242.881,191.231,246.753,189.16,250.614Zm625.353-21.607c-2.329-3.7-4.763-7.4-7.231-11.01l1.845-1.237c2.484,3.634,4.932,7.361,7.276,11.078Zm-612.024-1.163-1.885-1.175c2.364-3.716,4.831-7.44,7.333-11.07l1.841,1.243c-2.488,3.608-4.94,7.309-7.289,11Zm597.156-20.589c-2.586-3.5-5.287-7.022-8.029-10.46l1.749-1.367c2.758,3.459,5.476,7,8.079,10.525Zm-582.176-1.141-1.793-1.31c2.637-3.539,5.372-7.073,8.131-10.5l1.743,1.373c-2.743,3.41-5.462,6.923-8.082,10.441ZM783.2,186.632c-2.853-3.321-5.807-6.637-8.783-9.854l1.643-1.49c2.994,3.237,5.967,6.573,8.837,9.914Zm-549.19-1.1-1.692-1.436c2.884-3.33,5.873-6.656,8.883-9.884l1.637,1.5c-2.992,3.21-5.962,6.514-8.829,9.824Zm531.263-18.288c-3.1-3.112-6.291-6.206-9.491-9.195l1.53-1.6c3.219,3.008,6.432,6.12,9.548,9.252Zm-513.25-1.031-1.581-1.554c3.129-3.119,6.354-6.219,9.586-9.212l1.522,1.611c-3.213,2.975-6.418,6.055-9.527,9.156ZM745.954,149.2c-3.315-2.878-6.729-5.733-10.146-8.487l1.406-1.71c3.439,2.77,6.874,5.643,10.209,8.538Zm-474.545-.95-1.462-1.665c3.348-2.882,6.792-5.739,10.238-8.492l1.4,1.717c-3.424,2.736-6.848,5.576-10.176,8.439ZM725.351,132.6c-3.512-2.625-7.129-5.226-10.75-7.73l1.275-1.808c3.645,2.52,7.284,5.137,10.818,7.777Zm-433.29-.854-1.335-1.766c3.553-2.632,7.2-5.232,10.834-7.725l1.269,1.814c-3.614,2.482-7.237,5.065-10.768,7.682ZM703.569,117.54c-3.706-2.367-7.508-4.7-11.3-6.93l1.138-1.9c3.815,2.245,7.641,4.591,11.369,6.973Zm-389.7-.746-1.2-1.858c3.733-2.365,7.56-4.691,11.372-6.916l1.132,1.9c-3.79,2.21-7.593,4.523-11.3,6.873Zm366.845-12.7c-3.863-2.087-7.83-4.136-11.788-6.089l.994-1.974c3.982,1.965,7.974,4.026,11.861,6.127Zm-343.995-.631-1.06-1.941c3.895-2.084,7.882-4.125,11.85-6.066l.987,1.978c-3.944,1.929-7.907,3.957-11.777,6.029Zm320.2-11.113c-4.011-1.8-8.121-3.552-12.215-5.21l.843-2.042c4.12,1.668,8.255,3.432,12.292,5.243ZM360.49,91.843l-.912-2.012c4.032-1.791,8.158-3.535,12.263-5.182l.837,2.044c-4.081,1.637-8.182,3.37-12.188,5.15ZM632.3,82.382c-4.152-1.5-8.384-2.952-12.579-4.3l.689-2.1c4.221,1.358,8.479,2.814,12.657,4.328Zm-247.251-.389-.759-2.073c4.16-1.5,8.4-2.93,12.609-4.269l.682,2.1c-4.18,1.33-8.4,2.757-12.531,4.242Zm221.936-7.749c-4.242-1.193-8.562-2.323-12.837-3.358l.529-2.142c4.3,1.041,8.649,2.178,12.918,3.378Zm-196.691-.282-.6-2.124c4.264-1.185,8.613-2.309,12.927-3.341l.523,2.145c-4.292,1.025-8.615,2.142-12.852,3.32ZM581.191,68c-4.315-.878-8.706-1.688-13.053-2.408l.368-2.176c4.373.724,8.792,1.54,13.133,2.423ZM436.1,67.794l-.442-2.162c4.35-.872,8.771-1.674,13.14-2.385l.361,2.177c-4.343.706-8.737,1.5-13.061,2.37ZM555,63.663c-4.378-.562-8.818-1.049-13.2-1.45l.205-2.2c4.406.4,8.873.894,13.277,1.459Zm-92.7-.131-.28-2.189c4.39-.551,8.859-1.029,13.281-1.422l.2,2.2c-4.4.39-8.838.866-13.2,1.413Zm66.265-2.291c-4.391-.243-8.855-.409-13.268-.493l.044-2.206c4.439.086,8.931.253,13.349.5Zm-39.821-.057-.117-2.2c4.424-.232,8.917-.386,13.352-.459l.037,2.206c-4.408.069-8.873.223-13.27.453Z" transform="translate(507.703 401.477)" fill="rgba(15,71,175,0.14)"/><path d="M856.709,324.9c-1.142-4.2-2.383-8.447-3.684-12.615l2.128-.652c1.31,4.193,2.558,8.464,3.708,12.693Zm-696.889-.96-2.15-.579c1.166-4.242,2.43-8.524,3.758-12.729l2.127.658c-1.32,4.178-2.576,8.435-3.735,12.65Zm689.059-24.1c-1.459-4.119-3.009-8.256-4.611-12.294l2.074-.806c1.611,4.063,3.173,8.226,4.639,12.371ZM167.76,298.79l-2.1-.736c1.484-4.15,3.065-8.326,4.7-12.411l2.071.812c-1.625,4.06-3.2,8.211-4.67,12.334ZM839.2,275.426c-1.754-3.987-3.61-8-5.516-11.93l2.008-.955c1.918,3.954,3.786,7.993,5.551,12ZM177.559,274.3l-2.04-.889c1.789-4.025,3.677-8.071,5.613-12.026l2.005.962c-1.923,3.93-3.8,7.952-5.577,11.952Zm650.163-22.533c-2.054-3.861-4.2-7.73-6.393-11.5l1.932-1.1c2.2,3.794,4.366,7.687,6.432,11.572ZM189.16,250.614l-1.968-1.035c2.085-3.885,4.27-7.781,6.493-11.579l1.928,1.106C193.4,242.881,191.231,246.753,189.16,250.614Zm625.353-21.607c-2.329-3.7-4.763-7.4-7.231-11.01l1.845-1.237c2.484,3.634,4.932,7.361,7.276,11.078Zm-612.024-1.163-1.885-1.175c2.364-3.716,4.831-7.44,7.333-11.07l1.841,1.243c-2.488,3.608-4.94,7.309-7.289,11Zm597.156-20.589c-2.586-3.5-5.287-7.022-8.029-10.46l1.749-1.367c2.758,3.459,5.476,7,8.079,10.525Zm-582.176-1.141-1.793-1.31c2.637-3.539,5.372-7.073,8.131-10.5l1.743,1.373c-2.743,3.41-5.462,6.923-8.082,10.441ZM783.2,186.632c-2.853-3.321-5.807-6.637-8.783-9.854l1.643-1.49c2.994,3.237,5.967,6.573,8.837,9.914Zm-549.19-1.1-1.692-1.436c2.884-3.33,5.873-6.656,8.883-9.884l1.637,1.5c-2.992,3.21-5.962,6.514-8.829,9.824Zm531.263-18.288c-3.1-3.112-6.291-6.206-9.491-9.195l1.53-1.6c3.219,3.008,6.432,6.12,9.548,9.252Zm-513.25-1.031-1.581-1.554c3.129-3.119,6.354-6.219,9.586-9.212l1.522,1.611c-3.213,2.975-6.418,6.055-9.527,9.156ZM745.954,149.2c-3.315-2.878-6.729-5.733-10.146-8.487l1.406-1.71c3.439,2.77,6.874,5.643,10.209,8.538Zm-474.545-.95-1.462-1.665c3.348-2.882,6.792-5.739,10.238-8.492l1.4,1.717c-3.424,2.736-6.848,5.576-10.176,8.439ZM725.351,132.6c-3.512-2.625-7.129-5.226-10.75-7.73l1.275-1.808c3.645,2.52,7.284,5.137,10.818,7.777Zm-433.29-.854-1.335-1.766c3.553-2.632,7.2-5.232,10.834-7.725l1.269,1.814c-3.614,2.482-7.237,5.065-10.768,7.682ZM703.569,117.54c-3.706-2.367-7.508-4.7-11.3-6.93l1.138-1.9c3.815,2.245,7.641,4.591,11.369,6.973Zm-389.7-.746-1.2-1.858c3.733-2.365,7.56-4.691,11.372-6.916l1.132,1.9c-3.79,2.21-7.593,4.523-11.3,6.873Zm366.845-12.7c-3.863-2.087-7.83-4.136-11.788-6.089l.994-1.974c3.982,1.965,7.974,4.026,11.861,6.127Zm-343.995-.631-1.06-1.941c3.895-2.084,7.882-4.125,11.85-6.066l.987,1.978c-3.944,1.929-7.907,3.957-11.777,6.029Zm320.2-11.113c-4.011-1.8-8.121-3.552-12.215-5.21l.843-2.042c4.12,1.668,8.255,3.432,12.292,5.243ZM360.49,91.843l-.912-2.012c4.032-1.791,8.158-3.535,12.263-5.182l.837,2.044c-4.081,1.637-8.182,3.37-12.188,5.15ZM632.3,82.382c-4.152-1.5-8.384-2.952-12.579-4.3l.689-2.1c4.221,1.358,8.479,2.814,12.657,4.328Zm-247.251-.389-.759-2.073c4.16-1.5,8.4-2.93,12.609-4.269l.682,2.1c-4.18,1.33-8.4,2.757-12.531,4.242Zm221.936-7.749c-4.242-1.193-8.562-2.323-12.837-3.358l.529-2.142c4.3,1.041,8.649,2.178,12.918,3.378Zm-196.691-.282-.6-2.124c4.264-1.185,8.613-2.309,12.927-3.341l.523,2.145c-4.292,1.025-8.615,2.142-12.852,3.32ZM581.191,68c-4.315-.878-8.706-1.688-13.053-2.408l.368-2.176c4.373.724,8.792,1.54,13.133,2.423ZM436.1,67.794l-.442-2.162c4.35-.872,8.771-1.674,13.14-2.385l.361,2.177c-4.343.706-8.737,1.5-13.061,2.37ZM555,63.663c-4.378-.562-8.818-1.049-13.2-1.45l.205-2.2c4.406.4,8.873.894,13.277,1.459Zm-92.7-.131-.28-2.189c4.39-.551,8.859-1.029,13.281-1.422l.2,2.2c-4.4.39-8.838.866-13.2,1.413Zm66.265-2.291c-4.391-.243-8.855-.409-13.268-.493l.044-2.206c4.439.086,8.931.253,13.349.5Zm-39.821-.057-.117-2.2c4.424-.232,8.917-.386,13.352-.459l.037,2.206c-4.408.069-8.873.223-13.27.453Z" transform="translate(507.703 423.477)" fill="rgba(15,71,175,0.14)"/><path d="M856.709,324.9c-1.142-4.2-2.383-8.447-3.684-12.615l2.128-.652c1.31,4.193,2.558,8.464,3.708,12.693Zm-696.889-.96-2.15-.579c1.166-4.242,2.43-8.524,3.758-12.729l2.127.658c-1.32,4.178-2.576,8.435-3.735,12.65Zm689.059-24.1c-1.459-4.119-3.009-8.256-4.611-12.294l2.074-.806c1.611,4.063,3.173,8.226,4.639,12.371ZM167.76,298.79l-2.1-.736c1.484-4.15,3.065-8.326,4.7-12.411l2.071.812c-1.625,4.06-3.2,8.211-4.67,12.334ZM839.2,275.426c-1.754-3.987-3.61-8-5.516-11.93l2.008-.955c1.918,3.954,3.786,7.993,5.551,12ZM177.559,274.3l-2.04-.889c1.789-4.025,3.677-8.071,5.613-12.026l2.005.962c-1.923,3.93-3.8,7.952-5.577,11.952Zm650.163-22.533c-2.054-3.861-4.2-7.73-6.393-11.5l1.932-1.1c2.2,3.794,4.366,7.687,6.432,11.572ZM189.16,250.614l-1.968-1.035c2.085-3.885,4.27-7.781,6.493-11.579l1.928,1.106C193.4,242.881,191.231,246.753,189.16,250.614Zm625.353-21.607c-2.329-3.7-4.763-7.4-7.231-11.01l1.845-1.237c2.484,3.634,4.932,7.361,7.276,11.078Zm-612.024-1.163-1.885-1.175c2.364-3.716,4.831-7.44,7.333-11.07l1.841,1.243c-2.488,3.608-4.94,7.309-7.289,11Zm597.156-20.589c-2.586-3.5-5.287-7.022-8.029-10.46l1.749-1.367c2.758,3.459,5.476,7,8.079,10.525Zm-582.176-1.141-1.793-1.31c2.637-3.539,5.372-7.073,8.131-10.5l1.743,1.373c-2.743,3.41-5.462,6.923-8.082,10.441ZM783.2,186.632c-2.853-3.321-5.807-6.637-8.783-9.854l1.643-1.49c2.994,3.237,5.967,6.573,8.837,9.914Zm-549.19-1.1-1.692-1.436c2.884-3.33,5.873-6.656,8.883-9.884l1.637,1.5c-2.992,3.21-5.962,6.514-8.829,9.824Zm531.263-18.288c-3.1-3.112-6.291-6.206-9.491-9.195l1.53-1.6c3.219,3.008,6.432,6.12,9.548,9.252Zm-513.25-1.031-1.581-1.554c3.129-3.119,6.354-6.219,9.586-9.212l1.522,1.611c-3.213,2.975-6.418,6.055-9.527,9.156ZM745.954,149.2c-3.315-2.878-6.729-5.733-10.146-8.487l1.406-1.71c3.439,2.77,6.874,5.643,10.209,8.538Zm-474.545-.95-1.462-1.665c3.348-2.882,6.792-5.739,10.238-8.492l1.4,1.717c-3.424,2.736-6.848,5.576-10.176,8.439ZM725.351,132.6c-3.512-2.625-7.129-5.226-10.75-7.73l1.275-1.808c3.645,2.52,7.284,5.137,10.818,7.777Zm-433.29-.854-1.335-1.766c3.553-2.632,7.2-5.232,10.834-7.725l1.269,1.814c-3.614,2.482-7.237,5.065-10.768,7.682ZM703.569,117.54c-3.706-2.367-7.508-4.7-11.3-6.93l1.138-1.9c3.815,2.245,7.641,4.591,11.369,6.973Zm-389.7-.746-1.2-1.858c3.733-2.365,7.56-4.691,11.372-6.916l1.132,1.9c-3.79,2.21-7.593,4.523-11.3,6.873Zm366.845-12.7c-3.863-2.087-7.83-4.136-11.788-6.089l.994-1.974c3.982,1.965,7.974,4.026,11.861,6.127Zm-343.995-.631-1.06-1.941c3.895-2.084,7.882-4.125,11.85-6.066l.987,1.978c-3.944,1.929-7.907,3.957-11.777,6.029Zm320.2-11.113c-4.011-1.8-8.121-3.552-12.215-5.21l.843-2.042c4.12,1.668,8.255,3.432,12.292,5.243ZM360.49,91.843l-.912-2.012c4.032-1.791,8.158-3.535,12.263-5.182l.837,2.044c-4.081,1.637-8.182,3.37-12.188,5.15ZM632.3,82.382c-4.152-1.5-8.384-2.952-12.579-4.3l.689-2.1c4.221,1.358,8.479,2.814,12.657,4.328Zm-247.251-.389-.759-2.073c4.16-1.5,8.4-2.93,12.609-4.269l.682,2.1c-4.18,1.33-8.4,2.757-12.531,4.242Zm221.936-7.749c-4.242-1.193-8.562-2.323-12.837-3.358l.529-2.142c4.3,1.041,8.649,2.178,12.918,3.378Zm-196.691-.282-.6-2.124c4.264-1.185,8.613-2.309,12.927-3.341l.523,2.145c-4.292,1.025-8.615,2.142-12.852,3.32ZM581.191,68c-4.315-.878-8.706-1.688-13.053-2.408l.368-2.176c4.373.724,8.792,1.54,13.133,2.423ZM436.1,67.794l-.442-2.162c4.35-.872,8.771-1.674,13.14-2.385l.361,2.177c-4.343.706-8.737,1.5-13.061,2.37ZM555,63.663c-4.378-.562-8.818-1.049-13.2-1.45l.205-2.2c4.406.4,8.873.894,13.277,1.459Zm-92.7-.131-.28-2.189c4.39-.551,8.859-1.029,13.281-1.422l.2,2.2c-4.4.39-8.838.866-13.2,1.413Zm66.265-2.291c-4.391-.243-8.855-.409-13.268-.493l.044-2.206c4.439.086,8.931.253,13.349.5Zm-39.821-.057-.117-2.2c4.424-.232,8.917-.386,13.352-.459l.037,2.206c-4.408.069-8.873.223-13.27.453Z" transform="translate(507.703 447.477)" fill="rgba(15,71,175,0.14)"/></g></svg>