<svg xmlns="http://www.w3.org/2000/svg" xmlns:xlink="http://www.w3.org/1999/xlink" width="1920" height="1101" viewBox="0 0 1920 1101"><defs><clipPath id="b"><rect width="1920" height="1101"/></clipPath></defs><g id="a" clip-path="url(#b)"><rect width="1920" height="1101" fill="#fff"/><g transform="translate(17 -106)"><path d="M965.9,393.136c-3.09-23.181-12.083-45.112-23.809-64.706-26.464-44.275-66.57-77.308-109.923-100.97-.418-.233-.871-.451-1.262-.677a38.619,38.619,0,0,0,10-16.357c13.337-45.672-76.608-103.24-200.834-128.568-99.694-20.3-191.188-13.694-230.345,13.315-91.337-4.8-186.627,42.172-249.95,114.525-22.634,25.9-41.786,56.484-50.187,91.067-10.22,41.881-4.109,86.956,10.229,127.374A288.912,288.912,0,0,0,167.3,513.409q2.168,2.663,4.4,5.268,3.839,4.489,7.835,8.731a228.311,228.311,0,0,0,56.672,44.326A197.508,197.508,0,0,0,274.24,587.6c35.692,10.681,74,11.125,109.27,0a169.309,169.309,0,0,0,17.272-6.483q4.649-2.03,9.193-4.366c5.841-3,11.578-6.345,17.272-9.823,7.9-4.831,15.67-9.925,23.6-14.683l.679-.415c9.315-5.588,18.743-10.7,28.571-14.385a90.42,90.42,0,0,1,20.6-5.217,86.393,86.393,0,0,1,31.453,2.045c1.933.466,3.865,1,5.78,1.579a136.476,136.476,0,0,1,18.038,6.992c25.106,11.642,49.133,30.2,73.787,44.755,3.482,2.081,7.06,4.082,10.612,5.966,31.453,16.684,66.048,24.819,100.278,32.706,38.809,8.95,79.881,17.637,117.427,3.7,21.764-8.069,40.611-23.371,55.715-42.376a181.594,181.594,0,0,0,17.359-26.332q3.682-6.788,6.886-13.824c12.414-27.285,19.631-57.263,24.61-87.313C966.329,438.007,968.836,415.357,965.9,393.136Z" transform="translate(424.405 302.786)" fill="rgba(185,185,223,0.97)" opacity="0.1"/><g transform="translate(-2526 1307)"><path d="M470.2,729.144c0,6.835-19.142,14.39-42.747,14.39S384.71,736,384.71,729.144s19.135-10.374,42.747-10.374S470.2,722.315,470.2,729.144Z" transform="translate(2750.792 -1389.691)" fill="#3f3d56"/><path d="M470.2,729.144c0,6.835-19.142,14.39-42.747,14.39S384.71,736,384.71,729.144s19.135-10.374,42.747-10.374S470.2,722.315,470.2,729.144Z" transform="translate(2750.792 -1389.691)" fill="#fff" opacity="0.1"/><path d="M465.287,724.084c-.043,5.331-15.952,11.2-34.369,11.2s-33.772-5.887-34.031-11.2c-.855-18.524,15.614-8.1,34.031-8.1S465.46,702.76,465.287,724.084Z" transform="translate(2747.374 -1387.326)" fill="#3f3d56"/><path d="M465.287,724.084c-.043,5.331-15.952,11.2-34.369,11.2s-33.772-5.887-34.031-11.2c-.855-18.524,15.614-8.1,34.031-8.1S465.46,702.76,465.287,724.084Z" transform="translate(2747.374 -1387.326)" fill="rgba(0,0,0,0.93)" opacity="0.2"/><path d="M464.54,711.34c0,5.959-14.925,12.526-33.341,12.526s-33.348-6.541-33.348-12.526,14.932-9.04,33.348-9.04S464.54,705.374,464.54,711.34Z" transform="translate(2747.094 -1383.994)" fill="#3f3d56"/><path d="M464.54,711.34c0,5.959-14.925,12.526-33.341,12.526s-33.348-6.541-33.348-12.526,14.932-9.04,33.348-9.04S464.54,705.374,464.54,711.34Z" transform="translate(2747.094 -1383.994)" fill="#fff" opacity="0.1"/><path d="M319.392,759.865s6.309-6.332,7.394-13.448S295.96,728.37,295.96,728.37s-11.066,5.887-11.44,11.4C284.52,739.771,305.7,760.492,319.392,759.865Z" transform="translate(2778.99 -1393.012)" fill="#3f3d56"/><path d="M319.392,759.865s6.309-6.332,7.394-13.448S295.96,728.37,295.96,728.37s-11.066,5.887-11.44,11.4C284.52,739.771,305.7,760.492,319.392,759.865Z" transform="translate(2778.99 -1393.012)" opacity="0.2"/><path d="M6.483.275c3.581.152,6.85,9.314,7.3,20.464S11.7,40.8,8.121,40.653s-6.85-9.314-7.3-20.464S2.9.123,6.483.275Z" transform="translate(3059.059 -646.816) rotate(-59.03)" fill="#3f3d56"/><path d="M6.483.275c3.581.152,6.85,9.314,7.3,20.464S11.7,40.8,8.121,40.653s-6.85-9.314-7.3-20.464S2.9.123,6.483.275Z" transform="translate(3059.059 -646.816) rotate(-59.03)" fill="#fff" opacity="0.1"/><path d="M226.965,678.879l18.151-27.544-18.46-14.272-14.393-2.453-4.491,7.372L195.14,663.318Z" transform="translate(2879.256 -1327.652)" fill="#3f3d56"/><path d="M226.965,678.879l18.151-27.544-18.46-14.272-14.393-2.453-4.491,7.372L195.14,663.318Z" transform="translate(2879.256 -1327.652)" fill="#fff" opacity="0.1"/><path d="M356.431,695.754s12.259-11.859,9.111-18.269-19.768-19.256-30.352-17.3-12.28,16.163-12.28,16.163Z" transform="translate(2768.185 -1369.356)" fill="#3f3d56"/><path d="M356.431,695.754s12.259-11.859,9.111-18.269-19.768-19.256-30.352-17.3-12.28,16.163-12.28,16.163Z" transform="translate(2768.185 -1369.356)" opacity="0.2"/><path d="M173.694,627.7l93.894,51.987s8.925-1.053,7.954-11.931l-93-52.55a10.4,10.4,0,0,0-6.345-1.243c-2.544.314-5.554,1.158-6.532,3.362a6.93,6.93,0,0,0-.517,1.746,8.392,8.392,0,0,0,4.541,8.627Z" transform="translate(2811.485 -1353.41)" fill="#1a1818" stroke="#707070" stroke-width="1" opacity="0.2"/><path d="M173.694,627.7l93.894,51.987s8.925-1.053,7.954-11.931l-93-52.55a10.4,10.4,0,0,0-6.345-1.243c-2.544.314-5.554,1.158-6.532,3.362a6.93,6.93,0,0,0-.517,1.746,8.392,8.392,0,0,0,4.541,8.627Z" transform="translate(2812.203 -1355.372)" fill="#3f3d56"/></g><g transform="translate(56 34)"><ellipse cx="31.875" cy="32.793" rx="31.875" ry="32.793" transform="translate(1076.043 523.153)" fill="#fae1e6"/><path d="M568.907,367.041c0,64.562-37.306,87.1-83.326,87.1s-83.326-22.543-83.326-87.1,83.326-146.695,83.326-146.695S568.907,302.478,568.907,367.041Z" transform="translate(736.479 226.036)" fill="#eef4ff"/><path d="M377.149,358.22,378,304.187l35.516-66.846-35.382,58.37.384-24.3L403,223.054l-24.376,41.933h0l.69-43.7,26.211-38.5-26.1,31.631.431-80.123-2.709,106.068.223-4.375-26.649-41.965,26.222,50.365-2.483,48.8-.074-1.3-30.721-44.162,30.628,48.738-.311,6.1-.056.092.025.5-6.3,123.812h8.417l1.01-63.951,30.553-48.619Z" transform="translate(841.875 312.085)" fill="#d2d0df"/><path d="M707.74,469.391c0,64.562-37.306,87.1-83.326,87.1s-83.326-22.542-83.326-87.1S624.414,322.7,624.414,322.7,707.74,404.829,707.74,469.391Z" transform="translate(679.202 175.132)" fill="#d3f5de"/><path d="M515.981,460.57l.854-54.032,35.515-66.846-35.381,58.37.383-24.295L541.829,325.4l-24.376,41.932h0l.69-43.7,26.211-38.5-26.1,31.631.431-80.123-2.71,106.069.223-4.375-26.649-41.965,26.222,50.365-2.483,48.8-.074-1.3-30.721-44.162,30.628,48.738-.31,6.1-.056.092.025.5-6.3,123.812H514.9l1.01-63.952,30.553-48.618Z" transform="translate(783.441 270.714)" fill="#f2f2f2"/><path d="M437.169,469.391c0,64.562-37.306,87.1-83.326,87.1s-83.326-22.542-83.326-87.1S353.843,322.7,353.843,322.7,437.169,404.829,437.169,469.391Z" transform="translate(791.927 184.665)" fill="#dbdbdf"/><path d="M245.41,460.57l.854-54.032,35.516-66.846L246.4,398.062l.383-24.295L271.258,325.4l-24.376,41.932h0l.69-43.7,26.211-38.5-26.1,31.631.431-80.123L245.4,342.716l.222-4.375-26.649-41.965L245.2,346.74l-2.483,48.8-.074-1.3L211.92,350.083l30.628,48.738-.31,6.1-.056.092.025.5-6.3,123.812h8.417l1.01-63.952,30.553-48.618Z" transform="translate(897.324 270.714)" fill="#f2f2f2"/><path d="M424.594,572.546c-82.181,0-152.918-59.725-168.951-142.648s27.1-165.951,103.029-198.306,163.493-5.027,209.15,65.272S604.51,460.854,546.4,520.638A168.742,168.742,0,0,1,424.594,572.546Zm0-353.092c-94.259,0-170.945,78.894-170.945,175.869s76.685,175.87,170.945,175.87S595.538,492.3,595.538,395.324,518.853,219.455,424.594,219.455Z" transform="translate(799.588 226.951)" fill="#d1d0d5"/></g><path d="M690.674,326.062l9.206-7.363c-7.151-.789-10.09,3.111-11.292,6.2-5.587-2.32-11.669.72-11.669.72l18.419,6.687a13.938,13.938,0,0,0-4.663-6.243Z" transform="matrix(0.995, 0.105, -0.105, 0.995, 712.721, 27.229)" fill="rgba(63,61,86,0.34)"/><path d="M690.674,326.062l9.206-7.363c-7.151-.789-10.09,3.111-11.292,6.2-5.587-2.32-11.669.72-11.669.72l18.419,6.687a13.938,13.938,0,0,0-4.663-6.243Z" transform="matrix(0.995, 0.105, -0.105, 0.995, 716.721, 57.229)" fill="rgba(63,61,86,0.34)"/><path d="M690.674,326.062l9.206-7.363c-7.151-.789-10.09,3.111-11.292,6.2-5.587-2.32-11.669.72-11.669.72l18.419,6.687a13.938,13.938,0,0,0-4.663-6.243Z" transform="matrix(0.995, 0.105, -0.105, 0.995, 682.721, 41.229)" fill="rgba(63,61,86,0.34)"/></g></g></svg>