<svg xmlns="http://www.w3.org/2000/svg" width="1044.015" height="431.733" viewBox="0 0 1044.015 431.733"><g transform="translate(-220.985 -4354)"><g transform="translate(-28 79)"><path d="M248.985,4657.624H798.842l-43.35,32.408Z" transform="translate(0 0.046)" fill="#0f47af"/><path d="M1064.469,4657.623h187.2l-78.379,49.11-185.55-3.345Z" fill="#078930"/><path d="M799.494,4657.457c246.7-1.911,264.975,0,264.975,0l-75.381,45.874-235.28-13.379Z" fill="#da121a"/></g><text transform="translate(557 4519)" fill="#0f47af" font-size="157" font-family="Roboto-Bold, Roboto" font-weight="700"><tspan x="0" y="0">FCPC-GPI</tspan></text><text transform="translate(282 4708)" fill="#0f47af" font-size="197" font-family="Roboto-Black, Roboto" font-weight="800"><tspan x="0" y="0">MBABURA</tspan></text><g transform="translate(92 130)"><rect width="275" height="61" transform="translate(190 4359)" fill="#078930"/><rect width="275" height="62" transform="translate(190 4236)" fill="#da121a"/><rect width="275" height="61" transform="translate(190 4298)" fill="#fff"/><path d="M91,0l91,94H0Z" transform="translate(284 4236) rotate(90)" fill="#0f47af"/><line y2="348" transform="translate(165.5 4236.5)" fill="none" stroke="#0f47af" stroke-width="31"/></g></g></svg>