<svg xmlns="http://www.w3.org/2000/svg" xmlns:xlink="http://www.w3.org/1999/xlink" width="1920" height="1101" viewBox="0 0 1920 1101"><defs><clipPath id="b"><rect width="1920" height="1101"/></clipPath></defs><g id="a" clip-path="url(#b)"><rect width="1920" height="1101" fill="#fff"/><g transform="translate(3 -42)"><g transform="translate(10 -15)"><g transform="translate(362 291)"><path d="M175.764,701.583l-1.951-.439c21.756-96.751,76.43-184.609,153.951-247.392a444.114,444.114,0,0,1,424.361-74.4c13.178,4.556,26.058,9.7,38.832,15.5A444.015,444.015,0,0,1,1039.92,699.963l-1.949.443C991.916,498.2,814.7,356.972,607,356.972,402.026,356.972,220.666,501.9,175.764,701.583Z" transform="translate(-8.5 -182.972)" fill="rgba(15,71,175,0.18)"/><path d="M54.315,0A54.315,54.315,0,1,1,0,54.315,54.315,54.315,0,0,1,54.315,0Z" transform="translate(845.318 165.588)" fill="#ffd2db"/><path d="M31.248,0A31.248,31.248,0,1,1,0,31.248,31.248,31.248,0,0,1,31.248,0Z" transform="translate(825.064 214.923)" fill="#5f95f9" opacity="0.4"/></g><g transform="translate(362 312)"><path d="M175.764,701.583l-1.951-.439c21.756-96.751,76.43-184.609,153.951-247.392a444.114,444.114,0,0,1,424.361-74.4c13.178,4.556,26.058,9.7,38.832,15.5A444.015,444.015,0,0,1,1039.92,699.963l-1.949.443C991.916,498.2,814.7,356.972,607,356.972,402.026,356.972,220.666,501.9,175.764,701.583Z" transform="translate(-8.5 -182.972)" fill="rgba(7,137,48,0.23)"/><path d="M175.764,701.583l-1.951-.439c21.756-96.751,76.43-184.609,153.951-247.392a444.114,444.114,0,0,1,424.361-74.4c13.178,4.556,26.058,9.7,38.832,15.5A444.015,444.015,0,0,1,1039.92,699.963l-1.949.443C991.916,498.2,814.7,356.972,607,356.972,402.026,356.972,220.666,501.9,175.764,701.583Z" transform="translate(-8.5 -166.972)" fill="rgba(218,18,26,0.18)"/></g><path d="M418.664,767.759q-29.018-6.637-55.813-11.4l7.062-18.486c-2.381-1.117-12.843,9.469-12.843,9.469l9.267-53.659c-11.976,1.95-18.065,56.739-18.065,56.739L334.892,731.9l6.478,20.826c-54.673-8.693-101.89-11.916-141.6-12.032l6.044-15.822c-2.381-1.117-12.843,9.469-12.843,9.469l9.267-53.659c-11.976,1.95-18.065,56.739-18.065,56.739L170.788,718.9l6.861,22.058a593.008,593.008,0,0,0-81.4,7.465c6.113-24.647,26.881-48.089,26.881-48.089-15.86,6.369-24.18,17.041-28.527,26.99A570.8,570.8,0,0,1,113.1,578S80.32,674.313,84.5,738.963l.5,11.48c-27.792,5.373-41.765,10.963-41.765,10.963Z" transform="translate(1109.554 71.434)" fill="#d4f5df"/><g transform="translate(272 15)"><path d="M1086.93,722.093c-.3,54.784-32.978,73.73-73.15,73.508q-1.4-.008-2.786-.047-2.792-.076-5.526-.285c-36.242-2.768-64.3-23.032-64.02-73.982.292-52.726,68.048-118.893,73.129-123.785,0,0,0,0,.009,0,.193-.186.292-.28.292-.28S1087.23,667.313,1086.93,722.093Z" transform="translate(64.75 5.477)" fill="#fdaab9"/><path d="M1011.18,802.5l26.81-40-26.9,44.413-.095,4.611q-2.792-.082-5.526-.308l3.17-59.2-.02-.458.049-.087.3-5.594-26.513-44.844,26.611,40.652.061,1.187,2.395-44.729L988.87,651.825l22.975,38.45,2.73-92.751.01-.309,0,.3-.75,73.153,22.936-28.865-23.07,35.165-.808,40.059,21.48-38.319-21.594,44.209-.449,22.275,31.16-53.332-31.318,61.1Z" transform="translate(67.75 4.477)" fill="rgba(63,61,86,0.3)"/></g><g transform="translate(345 15)"><path d="M1086.93,722.093c-.3,54.784-32.978,73.73-73.15,73.508q-1.4-.008-2.786-.047-2.792-.076-5.526-.285c-36.242-2.768-64.3-23.032-64.02-73.982.292-52.726,68.048-118.893,73.129-123.785,0,0,0,0,.009,0,.193-.186.292-.28.292-.28S1087.23,667.313,1086.93,722.093Z" transform="translate(64.75 5.477)" fill="#ffced7"/><path d="M1011.18,802.5l26.81-40-26.9,44.413-.095,4.611q-2.792-.082-5.526-.308l3.17-59.2-.02-.458.049-.087.3-5.594-26.513-44.844,26.611,40.652.061,1.187,2.395-44.729L988.87,651.825l22.975,38.45,2.73-92.751.01-.309,0,.3-.75,73.153,22.936-28.865-23.07,35.165-.808,40.059,21.48-38.319-21.594,44.209-.449,22.275,31.16-53.332-31.318,61.1Z" transform="translate(67.75 4.477)" fill="rgba(63,61,86,0.3)"/></g></g><g transform="translate(-239 -25.354)"><path d="M601.316,741.305H46.624l9.36-15.737L193.315,494.7l6.321-10.629,56.742-95.389L323.97,275.056l86.985,146.231Z" transform="translate(568 108.414)" fill="#89898c"/><path d="M483.5,520.716a73.951,73.951,0,0,1-10.94,7.436c-19.265,10.53-40.691,10.82-60.1.814C389.5,516.984,370.424,491,346.12,486.222c-7.436-1.463-14.949-.822-22.467-.2l69.9-120.934Z" transform="translate(499.05 13)" fill="#f7f7f7"/></g><path d="M323.746,374.6a8.465,8.465,0,0,1-3.789,6.957l-.317.2H176.906L177.48,380c.1-.31,10.548-30.633,56.8-24.778,4.363-1.492,46.936-15.392,72.42.224C318.01,362.379,323.746,368.821,323.746,374.6Z" transform="translate(501.787 202)" fill="#f2f2f2"/><path d="M323.746,374.6a8.465,8.465,0,0,1-3.789,6.957l-.317.2H176.906L177.48,380c.1-.31,10.548-30.633,56.8-24.778,4.363-1.492,46.936-15.392,72.42.224C318.01,362.379,323.746,368.821,323.746,374.6Z" transform="translate(275.787 224)" fill="#f2f2f2"/><path d="M690.674,326.062l9.206-7.363c-7.151-.789-10.09,3.111-11.292,6.2-5.587-2.32-11.669.72-11.669.72l18.419,6.687a13.938,13.938,0,0,0-4.663-6.243Z" transform="translate(689.931 203.404)" fill="rgba(63,61,86,0.34)"/><path d="M690.674,326.062l9.206-7.363c-7.151-.789-10.09,3.111-11.292,6.2-5.587-2.32-11.669.72-11.669.72l18.419,6.687a13.938,13.938,0,0,0-4.663-6.243Z" transform="translate(666.931 210.404)" fill="rgba(63,61,86,0.34)"/><path d="M690.674,333.687,699.88,318.8c-7.151-1.595-10.09,6.289-11.292,12.528-5.587-4.689-11.669,1.456-11.669,1.456L695.337,346.3a34.93,34.93,0,0,0-4.663-12.618Z" transform="translate(706.931 232.404)" fill="rgba(63,61,86,0.34)"/><path d="M690.674,326.062l9.206-7.363c-7.151-.789-10.09,3.111-11.292,6.2-5.587-2.32-11.669.72-11.669.72l18.419,6.687a13.938,13.938,0,0,0-4.663-6.243Z" transform="translate(678.931 246.404)" fill="rgba(63,61,86,0.34)"/></g></g></svg>